<?xml version="1.0" encoding="utf-8"?>
<!-- Generator: Adobe Illustrator 27.1.1, SVG Export Plug-In . SVG Version: 6.00 Build 0)  -->
<svg version="1.1" id="Layer_1" xmlns="http://www.w3.org/2000/svg" xmlns:xlink="http://www.w3.org/1999/xlink" x="0px" y="0px"
	 viewBox="0 0 20 20" style="enable-background:new 0 0 20 20;" xml:space="preserve">
<g>
	<path d="M19.8,6.8L17,15.5c-0.2,0.6-0.5,1.2-0.9,1.6c-0.4,0.5-1,0.8-1.5,1c0.3-0.7,0.5-1.5,0.5-2.3V7.5c0-1.5-0.6-3-1.7-4.1
		s-2.6-1.7-4.1-1.7H7.8C8.3,1,9,0.5,9.8,0.2c0.8-0.3,1.7-0.3,2.5,0l4.7,1.5c1,0.3,1.9,1,2.4,2C20,4.6,20.1,5.7,19.8,6.8z M13.3,7.5
		v8.3c0,1.1-0.4,2.2-1.2,2.9c-0.8,0.8-1.8,1.2-2.9,1.2h-5c-1.1,0-2.2-0.4-2.9-1.2C0.4,18,0,16.9,0,15.8V7.5c0-1.1,0.4-2.2,1.2-2.9
		C2,3.8,3.1,3.3,4.2,3.3h5c1.1,0,2.2,0.4,2.9,1.2C12.9,5.3,13.3,6.4,13.3,7.5z M10,10.8c0-0.4-0.2-0.9-0.5-1.2
		C9.2,9.3,8.8,9.2,8.3,9.2c-0.4,0-0.9,0.2-1.2,0.5c-0.3,0.3-0.5,0.7-0.5,1.2c0-0.4-0.2-0.9-0.5-1.2C5.9,9.3,5.4,9.2,5,9.2
		S4.1,9.3,3.8,9.7c-0.3,0.3-0.5,0.7-0.5,1.2c0,1.2,1.3,2.8,2.3,3.6c0.3,0.3,0.7,0.4,1.1,0.4c0.4,0,0.8-0.1,1.1-0.4
		C8.7,13.7,10,12,10,10.8z"/>
</g>
</svg>
