<svg width="20" height="20" viewBox="0 0 20 20" fill="none" xmlns="http://www.w3.org/2000/svg">
<path d="M15.0364 11.2916C14.6864 11.6332 14.4864 12.1249 14.5364 12.6499C14.6114 13.5499 15.4364 14.2082 16.3364 14.2082H17.9198V15.1999C17.9198 16.9249 16.5114 18.3333 14.7864 18.3333H5.21976C3.49476 18.3333 2.08643 16.9249 2.08643 15.1999V9.59159C2.08643 7.86659 3.49476 6.45825 5.21976 6.45825H14.7864C16.5114 6.45825 17.9198 7.86659 17.9198 9.59159V10.7916H16.2364C15.7698 10.7916 15.3448 10.9749 15.0364 11.2916Z" stroke="#423100" stroke-width="1.54839" stroke-linecap="round" stroke-linejoin="round"/>
<path d="M2.08643 10.3416V6.5333C2.08643 5.54163 2.69476 4.65826 3.61976 4.30826L10.2364 1.80826C11.2698 1.41659 12.3781 2.18329 12.3781 3.29162V6.45828" stroke="#423100" stroke-width="1.54839" stroke-linecap="round" stroke-linejoin="round"/>
<path d="M18.7982 11.6421V13.3589C18.7982 13.8172 18.4315 14.1922 17.9649 14.2088H16.3315C15.4315 14.2088 14.6065 13.5505 14.5315 12.6505C14.4815 12.1255 14.6815 11.6338 15.0315 11.2922C15.3399 10.9755 15.7649 10.7922 16.2315 10.7922H17.9649C18.4315 10.8088 18.7982 11.1838 18.7982 11.6421Z" stroke="#423100" stroke-width="1.54839" stroke-linecap="round" stroke-linejoin="round"/>
<path d="M5.83643 10.0001H11.6698" stroke="#423100" stroke-width="1.54839" stroke-linecap="round" stroke-linejoin="round"/>
</svg>
