<?xml version="1.0" encoding="utf-8"?>
<!-- Generator: Adobe Illustrator 27.1.1, SVG Export Plug-In . SVG Version: 6.00 Build 0)  -->
<svg version="1.1" id="Layer_1" xmlns="http://www.w3.org/2000/svg" xmlns:xlink="http://www.w3.org/1999/xlink" x="0px" y="0px"
	 viewBox="0 0 20 20" style="enable-background:new 0 0 20 20;" xml:space="preserve">
<g>
	<path d="M5.4,1.7c0.8,0,1.5,0.2,2.1,0.6c0.7,0.4,1.2,1,1.6,1.6L10,5.5l0.9-1.6c0.4-0.7,0.9-1.2,1.6-1.6c0.6-0.4,1.4-0.6,2.1-0.6
		c1.2,0.1,2.4,0.6,3.2,1.5C18.6,4.1,19,5.3,19,6.5c0,4.1-5.8,9.3-9,11.6c-1-0.8-9-6.7-9-11.6c0-1.2,0.4-2.4,1.2-3.3
		C3.1,2.3,4.2,1.7,5.4,1.7 M14.6,0.7c-0.9,0-1.9,0.3-2.7,0.8c-0.8,0.5-1.5,1.2-1.9,2c-0.5-0.8-1.1-1.5-1.9-2C7.3,1,6.4,0.7,5.4,0.7
		C3.9,0.7,2.5,1.4,1.5,2.5C0.5,3.6-0.1,5.1,0,6.5C0,12.2,9.1,18.7,9.5,19l0.5,0.3l0.5-0.3c0.4-0.3,9.5-6.8,9.5-12.4
		c0.1-1.5-0.5-3-1.5-4.1C17.5,1.4,16.1,0.7,14.6,0.7L14.6,0.7z"/>
</g>
</svg>
