<?xml version="1.0" encoding="utf-8"?>
<!-- Generator: Adobe Illustrator 27.1.1, SVG Export Plug-In . SVG Version: 6.00 Build 0)  -->
<svg version="1.1" id="Layer_1" xmlns="http://www.w3.org/2000/svg" xmlns:xlink="http://www.w3.org/1999/xlink" x="0px" y="0px"
	 viewBox="0 0 20 20" style="enable-background:new 0 0 20 20;" xml:space="preserve">
<g>
	<path d="M7.3,7.2c0-0.5,0.2-0.8,0.7-0.8c0.2,0,0.4,0.1,0.5,0.1c1.5,1,2.9,2.1,4.4,3.1c0.4,0.3,0.4,0.9,0,1.2
		c-1.4,1-2.9,2.1-4.3,3.1c-0.2,0.2-0.5,0.2-0.8,0.1c-0.3-0.1-0.4-0.4-0.4-0.7"/>
	<path d="M10,1.9c4.5,0,8.1,3.6,8.1,8.1s-3.6,8.1-8.1,8.1S1.9,14.5,1.9,10S5.5,1.9,10,1.9 M10,0C4.5,0,0,4.5,0,10s4.5,10,10,10
		s10-4.5,10-10S15.5,0,10,0L10,0z"/>
</g>
</svg>
