<?xml version="1.0" encoding="utf-8"?>
<!-- Generator: Adobe Illustrator 27.1.1, SVG Export Plug-In . SVG Version: 6.00 Build 0)  -->
<svg version="1.1" id="Layer_1" xmlns="http://www.w3.org/2000/svg" xmlns:xlink="http://www.w3.org/1999/xlink" x="0px" y="0px"
	 viewBox="0 0 20 20" style="enable-background:new 0 0 20 20;" xml:space="preserve">
<path d="M19.7,18.4L16,14.7c1.3-1.5,2-3.5,2-5.7c0-5-4-9-9-9S0,4,0,9c0,5,4,9,9,9c2.2,0,4.1-0.8,5.7-2l3.8,3.8
	c0.2,0.2,0.4,0.3,0.6,0.3c0.2,0,0.5-0.1,0.6-0.3C20.1,19.4,20.1,18.8,19.7,18.4z M1.8,9C1.8,5,5,1.8,9,1.8S16.2,5,16.2,9
	c0,2-0.8,3.8-2.1,5c0,0,0,0,0,0c0,0,0,0,0,0c-1.3,1.3-3.1,2.1-5,2.1C5,16.2,1.8,12.9,1.8,9z"/>
</svg>
